<?xml version="1.0" encoding="utf-8"?>
<!-- Generator: Adobe Illustrator 26.3.1, SVG Export Plug-In . SVG Version: 6.00 Build 0)  -->
<svg version="1.1" id="Capa_1" xmlns="http://www.w3.org/2000/svg" xmlns:xlink="http://www.w3.org/1999/xlink" x="0px" y="0px"
	 viewBox="0 0 185 67.6" style="enable-background:new 0 0 185 67.6;" xml:space="preserve">
<style type="text/css">
	.st0{fill:#1D1D1B;}
</style>
<g>
	<path d="M73.6,52.7l1-2.3c1.3,0.6,2.8,1,4.3,1c3.7,0,4.7-1.8,4.7-4.9V30.4H75v-2.5h11.8v18.5c0,4.4-1.8,7.6-7.8,7.6
		C77,54,75.1,53.5,73.6,52.7z M82.3,21.7c0-1.4,1.1-2.4,2.5-2.4s2.5,1,2.5,2.4s-1.1,2.4-2.5,2.4S82.3,23.2,82.3,21.7z"/>
	<path d="M97.3,43.5l1.5-2c2.2,1.5,4.7,2.5,8.1,2.5c3.2,0,4.7-1.3,4.7-2.8c0-1.4-0.7-2.3-5.8-3.3c-4.9-1-7.3-2.6-7.3-5.3
		c0-2.9,2.7-5.1,7.8-5.1c2.8,0,5.7,1.1,7.5,2.3l-1.5,2c-1.7-1.2-3.9-1.9-6.3-1.9c-3.2,0-4.3,1.2-4.3,2.6c0,1.6,1.6,2.2,5.5,3
		c6.2,1.3,7.7,2.8,7.7,5.6c0,2.9-3,5.4-8.3,5.4C102.9,46.4,99.6,45.1,97.3,43.5z"/>
	<path d="M119.7,33.7c0-7.9,4.7-12.6,11.2-12.6c3.3,0,5.5,1.5,7,3l-1.8,2c-1.2-1.2-2.7-2.2-5.1-2.2c-4.7,0-7.8,3.8-7.8,9.8
		c0,6.1,2.8,9.9,7.7,9.9c1.8,0,3.4-0.5,4.3-1.4v-6.3h-5v-2.6h8v10.2c-1.6,1.6-4.3,2.8-7.5,2.8C124.3,46.4,119.7,41.7,119.7,33.7z"/>
	<path d="M144.5,43.4h7.1V26h-5.5v-2c2.9-0.4,4.7-0.9,6.3-1.7h2.4v21.1h6.4V46h-16.7V43.4z"/>
	<path d="M166.9,43.9l1.8-1.9c1.2,1.1,3,1.9,4.9,1.9c4,0,7.5-2.7,7.5-10.6c0-5.8-2.3-8.9-6.4-8.9c-2.9,0-5.2,2-5.2,5.2s1.8,5,5.2,5
		c1.9,0,4.3-0.9,6.4-3.3l0.1,2.4c-2,2-4.6,3.2-7.1,3.2c-4.5,0-7.6-2.5-7.6-7.3c0-4.5,3.8-7.6,8.2-7.6c5.3,0,9.4,3.8,9.4,11.4
		c0,9.5-5,13.2-10.3,13.2C170.7,46.4,168.5,45.3,166.9,43.9z"/>
	<path d="M166.4,52.2v-2.5H184v2.5H166.4z"/>
</g>
<path class="st0" d="M34.6,1.4C16.5,1.4,1.9,16.1,1.9,34.2S16.5,67,34.6,67s32.8-14.7,32.8-32.8S52.7,1.4,34.6,1.4L34.6,1.4z
	 M39,38.7v-2.4l11.7-3l-12-7.7l-6,20.8L13.4,34.2L31,29.7v2.4l-11.7,3l12.1,7.7l6-20.8l19.2,12.3L39,38.7z"/>
</svg>
